<svg xmlns="http://www.w3.org/2000/svg" viewBox="0 0 24 24">
  <circle cx="12" cy="12" r="12" fill="#fff"/>
  <path fill="#4285F4" d="M21.8 12.2c0-.7-.06-1.38-.18-2.05H12v3.88h5.5c-.24 1.28-.97 2.37-2.07 3.1v2.57h3.35c1.96-1.81 3.09-4.47 3.09-7.5z"/>
  <path fill="#34A853" d="M12 22c2.76 0 5.08-.91 6.78-2.47l-3.35-2.57c-.93.62-2.12 1-3.43 1-2.64 0-4.87-1.79-5.67-4.2H2.86v2.65C4.55 20.34 8.04 22 12 22z"/>
  <path fill="#FBBC04" d="M6.33 13.76A5.98 5.98 0 016 12c0-.61.1-1.21.3-1.76V7.6H2.86A9.97 9.97 0 002 12c0 1.62.39 3.15 1.07 4.51l3.26-2.75z"/>
  <path fill="#EA4335" d="M12 5.96c1.49 0 2.83.51 3.88 1.52l2.9-2.9C17.07 2.97 14.75 2 12 2 8.04 2 4.55 3.66 2.86 6.38l3.47 2.64C7.13 7.75 9.36 5.96 12 5.96z"/>
</svg>
